ffmpeg started on 2016-11-26 at 19:14:17
Report written to "Output/NVENCh264/results/ffmpeg/crowd_run_2160p50ll10000k.log"
Command line:
Tools/ffmpeg/ffmpeg -benchmark -y -i Input/y4m/crowd_run_2160p50.y4m -c:v h264_nvenc -preset ll -b:v 10000k -an Output/NVENCh264/encoded/crowd_run_2160p50ll10000k.mkv
ffmpeg version N-82227-gdb23fde Copyright (c) 2000-2016 the FFmpeg developers
  built with gcc 5.4.0 (Ubuntu 5.4.0-6ubuntu1~16.04.2) 20160609
  configuration: --prefix=/home/jaroslav/ffmpeg_build --pkg-config-flags=--static --extra-cflags=-I/home/jaroslav/ffmpeg_build/include --extra-ldflags=-L/home/jaroslav/ffmpeg_build/lib --bindir=/home/jaroslav/bin --enable-gpl --enable-libass --enable-libfdk-aac --enable-libfreetype --enable-libmp3lame --enable-libopus --enable-libtheora --enable-libvorbis --enable-libvpx --enable-libx264 --enable-libx265 --enable-nvenc --enable-libmfx --enable-libxvid --enable-libgsm --enable-libopencore-amrnb --enable-version3 --enable-nonfree
  libavutil      55. 35.100 / 55. 35.100
  libavcodec     57. 66.101 / 57. 66.101
  libavformat    57. 57.100 / 57. 57.100
  libavdevice    57.  2.100 / 57.  2.100
  libavfilter     6. 66.100 /  6. 66.100
  libswscale      4.  3.100 /  4.  3.100
  libswresample   2.  4.100 /  2.  4.100
  libpostproc    54.  2.100 / 54.  2.100
Input #0, yuv4mpegpipe, from 'Input/y4m/crowd_run_2160p50.y4m':
  Duration: 00:00:10.00, start: 0.000000, bitrate: 4976642 kb/s
    Stream #0:0: Video: rawvideo (I420 / 0x30323449), yuv420p(progressive), 3840x2160, SAR 1:1 DAR 16:9, 50 fps, 50 tbr, 50 tbn, 50 tbc
[h264_nvenc @ 0x3b7c1c0] The variable bitrate rate-control requires the 'qmin' and/or 'qmax' option set.
Output #0, matroska, to 'Output/NVENCh264/encoded/crowd_run_2160p50ll10000k.mkv':
  Metadata:
    encoder         : Lavf57.57.100
    Stream #0:0: Video: h264 (h264_nvenc) (Main) (H264 / 0x34363248), yuv420p, 3840x2160 [SAR 1:1 DAR 16:9], q=-1--1, 10000 kb/s, 50 fps, 1k tbn, 50 tbc
    Metadata:
      encoder         : Lavc57.66.101 h264_nvenc
    Side data:
      cpb: bitrate max/min/avg: 0/0/10000000 buffer size: 20000000 vbv_delay: -1
Stream mapping:
  Stream #0:0 -> #0:0 (rawvideo (native) -> h264 (h264_nvenc))
Press [q] to stop, [?] for help
frame=    7 fps=0.0 q=0.0 size=       0kB time=00:00:00.00 bitrate=N/A speed=   0x    frame=   19 fps= 17 q=0.0 size=       0kB time=00:00:00.00 bitrate=N/A speed=   0x    frame=   34 fps= 21 q=45.0 size=       1kB time=00:00:00.06 bitrate=  98.1kbits/s speed=0.0377x    frame=   52 fps= 24 q=42.0 size=       1kB time=00:00:00.42 bitrate=  14.2kbits/s speed=0.197x    frame=   70 fps= 26 q=43.0 size=       1kB time=00:00:00.78 bitrate=   7.7kbits/s speed=0.294x    frame=   88 fps= 28 q=43.0 size=       1kB time=00:00:01.14 bitrate=   5.2kbits/s speed=0.359x    frame=  106 fps= 29 q=43.0 size=       1kB time=00:00:01.50 bitrate=   4.0kbits/s speed=0.405x    frame=  115 fps= 18 q=43.0 size=       1kB time=00:00:01.68 bitrate=   3.6kbits/s speed=0.265x    frame=  116 fps= 12 q=43.0 size=       1kB time=00:00:01.70 bitrate=   3.5kbits/s speed=0.174x    frame=  117 fps= 11 q=43.0 size=       1kB time=00:00:01.72 bitrate=   3.5kbits/s speed=0.159x    frame=  135 fps= 12 q=43.0 size=       1kB time=00:00:02.08 bitrate=   2.9kbits/s speed=0.183x    frame=  153 fps= 13 q=43.0 size=       1kB time=00:00:02.44 bitrate=   2.5kbits/s speed=0.205x    frame=  170 fps= 14 q=43.0 size=       1kB time=00:00:02.78 bitrate=   2.2kbits/s speed=0.224x    frame=  187 fps= 14 q=43.0 size=       1kB time=00:00:03.12 bitrate=   1.9kbits/s speed=0.242x    frame=  201 fps= 15 q=43.0 size=       1kB time=00:00:03.40 bitrate=   1.8kbits/s speed=0.25x    frame=  218 fps= 15 q=43.0 size=       1kB time=00:00:03.74 bitrate=   1.6kbits/s speed=0.265x    frame=  235 fps= 16 q=43.0 size=       1kB time=00:00:04.08 bitrate=   1.5kbits/s speed=0.279x    frame=  250 fps= 16 q=43.0 size=    5128kB time=00:00:04.38 bitrate=9588.1kbits/s speed=0.289x    frame=  268 fps= 17 q=44.0 size=    5128kB time=00:00:04.74 bitrate=8860.0kbits/s speed=0.302x    frame=  285 fps= 18 q=43.0 size=    6140kB time=00:00:05.08 bitrate=9898.8kbits/s speed=0.314x    frame=  294 fps= 17 q=42.0 size=    6140kB time=00:00:05.26 bitrate=9560.2kbits/s speed=0.313x    frame=  312 fps= 18 q=43.0 size=    6140kB time=00:00:05.62 bitrate=8947.9kbits/s speed=0.324x    frame=  329 fps= 18 q=43.0 size=    6140kB time=00:00:05.96 bitrate=8437.5kbits/s speed=0.329x    frame=  345 fps= 19 q=43.0 size=    6140kB time=00:00:06.28 bitrate=8007.6kbits/s speed=0.337x    frame=  363 fps= 19 q=43.0 size=    6140kB time=00:00:06.64 bitrate=7573.6kbits/s speed=0.347x    frame=  381 fps= 19 q=43.0 size=    6140kB time=00:00:07.00 bitrate=7184.1kbits/s speed=0.356x    frame=  398 fps= 19 q=43.0 size=    6140kB time=00:00:07.34 bitrate=6851.4kbits/s speed=0.358x    frame=  416 fps= 20 q=44.0 size=    6140kB time=00:00:07.70 bitrate=6531.1kbits/s speed=0.366x    frame=  421 fps= 20 q=43.0 size=    6140kB time=00:00:07.80 bitrate=6447.4kbits/s speed=0.362x    frame=  439 fps= 20 q=43.0 size=    6140kB time=00:00:08.16 bitrate=6163.0kbits/s speed=0.369x    frame=  455 fps= 20 q=43.0 size=    6140kB time=00:00:08.48 bitrate=5930.4kbits/s speed=0.37x    frame=  472 fps= 20 q=43.0 size=    6140kB time=00:00:08.82 bitrate=5701.8kbits/s speed=0.377x    frame=  490 fps= 20 q=43.0 size=   11276kB time=00:00:09.18 bitrate=10061.2kbits/s speed=0.384x    frame=  500 fps= 21 q=43.0 Lsize=   12256kB time=00:00:09.98 bitrate=10059.3kbits/s speed=0.411x    
video:12251kB audio:0kB subtitle:0kB other streams:0kB global headers:0kB muxing overhead: 0.038843%
bench: utime=1.228s
bench: maxrss=1411024kB
